<?xml version="1.0" encoding="utf-8"?>
<!-- Generator: Adobe Illustrator 24.1.1, SVG Export Plug-In . SVG Version: 6.00 Build 0)  -->
<svg version="1.1" id="Layer_1" xmlns="http://www.w3.org/2000/svg" xmlns:xlink="http://www.w3.org/1999/xlink" x="0px" y="0px"
	 viewBox="0 0 612 792" style="enable-background:new 0 0 612 792;" xml:space="preserve">
<style type="text/css">
	.st0{fill:#002332;}
	.st1{fill:#00DB06;}
	.st2{fill:#01DB07;}
	.st3{fill:#C4F6C5;}
	.st4{fill:#9BF09D;}
	.st5{fill:#88EE8B;}
	.st6{fill:#99F09B;}
	.st7{fill:#78EB7B;}
	.st8{fill:#F0FCF0;}
	.st9{fill:#72EB75;}
	.st10{fill:#75EB78;}
	.st11{fill:#6EEA72;}
	.st12{fill:#71EB74;}
	.st13{fill:#4FE653;}
	.st14{fill:#71EB75;}
	.st15{fill:#E8FBE8;}
	.st16{fill:#50E654;}
	.st17{fill:#76EB79;}
</style>
<g>
	<path class="st0" d="M-144,720.75c0-216.23,0-432.47,0-648.75c299.96,0,599.93,0,900,0c0,216.22,0,432.48,0,648.75
		C456.02,720.75,156.02,720.75-144,720.75z M463.96,471.94l-0.25,0.01c0.45,0.89,1.26,1.76,1.29,2.66
		c0.17,5.19,0.16,10.39,0.21,15.58c-0.66,10.56-3.99,20.1-11.51,27.73c-15.57,15.79-34.81,21.58-56.53,19.76
		c-13.39-1.12-25.08-7-35.99-14.39c-2.36-1.59-3.33-1.05-4.92,0.56c-10.65,10.72-21.36,21.39-32.04,32.09
		c-0.6,0.6-1.14,1.26-2.03,2.27c1.85,1.52,3.48,2.98,5.23,4.27c21.21,15.61,44.31,26.37,71.11,27.57
		c10.56,0.47,21.05,0.14,31.5-1.81c13.32-2.49,26.08-6.59,37.57-13.74c8.13-5.06,16.15-10.53,23.33-16.84
		c6.84-6.01,11.55-13.92,15.89-22.08c8.16-15.34,12.44-31.53,13.04-48.8c0.25-0.87,0.71-1.74,0.71-2.61
		c0.02-74.92,0-149.85-0.05-224.77c0-0.95-0.49-1.9-0.75-2.84c-18.04-0.01-36.08-0.02-54.12-0.04c-0.2,1-0.56,2-0.57,3.01
		c-0.05,6.43,0.02,12.87-0.07,19.3c-0.02,1.09-0.62,2.17-0.95,3.25c-5.53-4.98-10.66-10.52-16.68-14.81
		c-14.14-10.08-30.36-14.48-47.55-15.26c-11.48-0.52-22.93,0.42-34.08,3.2c-16.85,4.21-30.82,13.37-41.87,26.67
		c-12.73,15.32-17.61,33.6-18.57,53.12c-0.45,9.31-0.61,18.64-0.9,27.97c-0.21,1.14-0.6,2.27-0.62,3.42
		c-0.06,6.48-0.06,12.95,0,19.43c0.01,1.14,0.4,2.28,0.61,3.42c1.04,13.69,1.79,27.41,3.21,41.06c0.98,9.35,3.8,18.41,8.34,26.64
		c10.32,18.71,26.5,30.64,46.19,38.06c16.75,6.31,34.03,7.62,51.6,4.47c19.67-3.53,36.55-12.38,50.16-27.17L463.96,471.94z
		 M244.64,495.67c1.07,0.27,2.14,0.76,3.21,0.77c10.86,0.06,21.73,0.04,32.59,0.04c6.2,0,12.41,0,18.85,0c0-1.68,0-3.03,0-4.37
		c0-50.95,0-101.89-0.01-152.84c0-2.62-0.08-5.24-0.12-7.85c-0.21-1.7-0.52-3.39-0.61-5.09c-0.64-12.26-3.86-23.76-10.02-34.4
		c-8-13.8-19.83-23.22-34.32-29.37c-18.93-8.03-39.02-10.03-59.3-10.53c-5.69-0.14-11.42,0.13-17.09,0.69
		c-8.39,0.83-16.93,1.3-25.05,3.33c-20.74,5.18-39.77,14.26-56.78,27.38c-1.84,1.42-1.75,2.41-0.31,3.85
		c10.42,10.42,20.83,20.85,31.24,31.27c1.09-0.68,2.05-1.21,2.94-1.85c16.89-12.06,35.75-18.31,56.44-18.92
		c5.31-0.16,10.64,0.59,15.97,0.64c8.58,0.08,16.96,1.84,24.46,5.57c10.76,5.35,17.81,13.98,17.93,26.83
		c-0.05,8.44-0.1,16.88-0.15,25.32c-31.81,0.92-63.67-1.61-95.43,1.61c-11.93,1.21-23.17,4.95-33.21,11.4
		c-16.26,10.45-24.96,25.96-26.43,44.97c-1.37,17.7,0.47,35.03,9.29,51.17c7.93,14.52,20.39,23.43,35.14,29.22
		c10.98,4.31,22.75,6.15,34.59,6.36c8.02,0.15,16.13,0.22,24.05-0.84c12.46-1.67,24.45-5.33,35.07-12.41
		c6.05-4.04,12.27-7.95,16.27-14.33c0.23,1.13,0.65,2.26,0.67,3.39C244.61,483.01,244.61,489.34,244.64,495.67z M-33.05,500.29
		c0.51,0.24,1.02,0.69,1.53,0.69c6.3,0,12.59-0.07,18.89-0.12c3.9-0.23,7.84-0.15,11.68-0.73c13.09-1.98,26.1-4.45,38.36-9.71
		c13.17-5.65,24.88-13.56,33.52-25.03c13.12-17.4,16.74-37.36,13.85-58.69c-2.16-15.94-10.47-28.09-23.55-37.02
		c-17.87-12.21-38.41-15.93-59.39-17.92c-6.07-0.57-12.22-0.3-18.28-0.94c-7.89-0.83-15.71-2.33-23.59-3.29
		c-9.75-1.18-18.97-3.79-27.1-9.49c-7.55-5.29-9.31-17.05-4.43-23.42c4.43-5.78,10.29-9.08,16.76-11.72
		c16.43-6.68,33.58-6.4,50.61-4.25c16.1,2.03,31.41,7.19,45.5,15.55c2.29,1.36,4.67,2.55,6.89,3.75
		c11.18-10.82,22.09-21.38,33.19-32.12c-1.06-1-1.71-1.74-2.47-2.32c-11.33-8.56-23.86-14.99-37.08-19.92
		c-12-4.47-24.3-8.18-37.16-9.39c-6.66-0.63-13.38-0.74-20.01-1.6c-13.19-1.72-26.24-0.43-39.04,2.36
		c-8.72,1.89-17.26,4.96-25.6,8.22c-14.92,5.82-27.21,15.43-36.23,28.65c-10.3,15.08-12.71,31.8-8.62,49.58
		c2.23,9.71,6.25,18.39,13.09,25.72c11.48,12.3,26.08,19.09,42.08,22.69c12.29,2.76,24.85,4.36,37.34,6.08
		c9.67,1.33,19.46,1.79,29.12,3.14c7.76,1.08,15.62,2.26,23.06,4.58c11.64,3.63,16.24,18.21,9.66,28.45
		c-5.04,7.84-12.88,11.82-21.14,14.85c-16.12,5.93-32.77,6.52-49.63,3.82c-13.31-2.13-25.95-6.13-37.29-13.51
		c-7.83-5.1-15.36-10.67-22.78-15.87c-11.42,11.47-23.11,23.2-35.09,35.23c1.78,1.51,3.88,3.21,5.89,5
		c15.39,13.82,33.01,23.97,52.6,30.26c11.4,3.66,23.31,5.76,35.06,8.25C-39.71,500.78-36.32,500.27-33.05,500.29z M579.77,399.21
		c1.49-0.08,2.98-0.23,4.47-0.23c54.11-0.01,108.22-0.01,162.33-0.01c1.36,0,2.71,0,4.18,0c0-1.2,0-2.16,0-3.12
		c0.78-6.35,2.21-12.71,2.21-19.06c0-11.04-0.15-22.17-1.59-33.09c-1.96-14.93-6.27-29.28-13.78-42.6
		c-8.7-15.42-20.67-27.37-36.25-35.6c-18.25-9.64-38.08-12.96-58.45-13.49c-11.21-0.29-22.35,0.39-33.43,2.82
		c-26.02,5.72-46.7,19.35-61.99,41.02c-14.91,21.14-20.76,45.33-22.28,70.7c-0.49,8.16,0.35,16.41,0.63,24.61
		c0.5,14.57,3.95,28.52,9.05,42.1c5.26,14,13.48,26.19,24.11,36.54c10.18,9.9,22.3,17.08,35.53,22.35
		c12.42,4.95,25.4,7.58,38.61,8.63c7.53,0.6,15.26,0.21,22.77-0.71c9.12-1.12,18.27-2.69,27.12-5.13
		c15.37-4.23,29.3-11.75,42.02-21.3c5.68-4.27,10.76-9.34,15.67-13.65c-10.99-10.99-21.56-21.57-31.78-31.78
		c-5.97,3.87-12.04,8.02-18.32,11.83c-12.78,7.74-27.05,10.56-41.68,11.27c-7.32,0.35-14.76-0.45-22.05-1.43
		c-12.32-1.65-23.17-6.98-32.13-15.52C584.79,424.91,580.21,412.87,579.77,399.21z"/>
	<path class="st1" d="M519.88,486.79c-0.6,17.27-4.88,33.46-13.04,48.8c-4.34,8.16-9.05,16.07-15.89,22.08
		c-7.18,6.31-15.19,11.78-23.33,16.84c-11.5,7.15-24.26,11.25-37.57,13.74c-10.45,1.95-20.94,2.28-31.5,1.81
		c-26.81-1.2-49.9-11.96-71.11-27.57c-1.76-1.29-3.38-2.76-5.23-4.27c0.9-1,1.43-1.67,2.03-2.27
		c10.68-10.69,21.39-21.36,32.04-32.09c1.59-1.6,2.56-2.15,4.92-0.56c10.91,7.39,22.6,13.27,35.99,14.39
		c21.71,1.82,40.96-3.96,56.53-19.76c7.52-7.63,10.84-17.17,11.51-27.73c0.29-6.53,0.58-13.07,0.87-19.6
		c-0.33-0.06-0.66-0.12-0.98-0.18c-0.46,0.51-0.92,1.02-1.37,1.53c0,0,0.25-0.01,0.24-0.02c-0.09,0.03-0.18,0.06-0.26,0.08
		c0.08,0.08,0.16,0.17,0.25,0.25c-13.61,14.79-30.49,23.64-50.16,27.17c-17.57,3.15-34.86,1.84-51.6-4.47
		c-19.69-7.42-35.87-19.35-46.19-38.06c-4.54-8.23-7.36-17.29-8.34-26.64c-1.42-13.65-2.18-27.37-3.21-41.06c0-8.75,0-17.51,0-26.26
		c0.29-9.32,0.44-18.65,0.9-27.97c0.95-19.52,5.84-37.8,18.57-53.12c11.04-13.29,25.02-22.46,41.87-26.67
		c11.14-2.78,22.59-3.73,34.08-3.2c17.2,0.78,33.42,5.18,47.55,15.26c6.02,4.29,11.15,9.84,16.68,14.81
		c2.34,1.94,1.7-0.36,1.71-1.29c0.06-7.81,0.06-15.63,0.07-23.44c17.97-0.01,35.93-0.02,53.9-0.03c0.02,0.87,0.07,1.75,0.07,2.62
		c0,72.87,0,145.74,0,218.61C519.83,481.3,519.86,484.05,519.88,486.79z M355.41,360.3c-0.22,6.59-0.56,13.19-0.61,19.78
		c-0.03,4.21,0.39,8.43,0.61,12.64c0.55,5.65,1.08,11.3,1.64,16.94c0.74,7.35,2.94,14.17,7.27,20.25
		c5.74,8.05,13.66,13.12,22.67,16.61c12.22,4.73,24.87,6.41,37.68,3.24c11.74-2.91,22.33-8.25,30.24-17.8
		c5.2-6.28,8.88-13.31,9.36-21.63c0.41-7.06,0.61-14.14,0.9-21.21c0.22-7.02,0.51-14.05,0.63-21.07c0.04-2.17-0.4-4.35-0.63-6.53
		c-0.29-6.45-0.61-12.9-0.87-19.35c-0.36-9.08-3.59-17.08-9.27-24.07c-11.04-13.6-25.95-19.16-42.91-19.57
		c-13.38-0.32-25.86,3.15-36.89,11.09c-11.03,7.94-17.72,18.25-18.25,32.19C356.76,348,355.96,354.15,355.41,360.3z"/>
	<path class="st1" d="M243.84,473.29c-4,6.39-10.22,10.3-16.27,14.33c-10.62,7.08-22.61,10.74-35.07,12.41
		c-7.91,1.06-16.03,0.98-24.05,0.84c-11.84-0.21-23.61-2.05-34.59-6.36c-14.76-5.79-27.21-14.7-35.14-29.22
		c-8.81-16.14-10.66-33.47-9.29-51.17c1.48-19.01,10.18-34.52,26.43-44.97c10.04-6.45,21.27-10.2,33.21-11.4
		c31.76-3.21,63.63-0.69,95.43-1.61c0.26-2.76,0.75-5.52,0.73-8.27c-0.05-5.68-0.37-11.37-0.58-17.05
		c-0.11-12.85-7.17-21.48-17.93-26.83c-7.5-3.73-15.88-5.48-24.46-5.57c-5.33-0.05-10.66-0.8-15.97-0.64
		c-20.69,0.61-39.55,6.86-56.44,18.92c-0.89,0.63-1.85,1.16-2.94,1.85c-10.41-10.42-20.82-20.85-31.24-31.27
		c-1.44-1.44-1.53-2.43,0.31-3.85c17.01-13.12,36.04-22.2,56.78-27.38c8.12-2.03,16.67-2.5,25.05-3.33
		c5.67-0.56,11.4-0.83,17.09-0.69c20.29,0.5,40.37,2.5,59.3,10.53c14.49,6.15,26.32,15.57,34.32,29.37
		c6.16,10.63,9.38,22.14,10.02,34.4c0.09,1.7,0.4,3.4,0.61,5.09c-0.22,1.03-0.63,2.06-0.63,3.09c-0.02,52.18-0.01,104.35,0,156.53
		c0,1.46,0,2.91,0,4.63c-18,0-35.57,0-53.14,0c-0.04-1.49-0.11-2.97-0.12-4.46c-0.01-5.45,0.03-10.91-0.05-16.36
		C245.23,474.19,246.07,472.18,243.84,473.29z M180.79,452.35c6.91,0,13.83,0.01,20.74,0.01c4.68-0.54,9.43-0.76,14.03-1.7
		c12.26-2.51,22.26-8.26,26.28-20.98c1.61-5.09,2.2-10.5,3.25-15.77c0-5.18,0-10.36,0-15.54c-23.91,0-47.47,0-71.03,0
		c-6.37,0.95-12.83,1.5-19.07,2.97c-6.34,1.5-12.58,3.8-16.51,9.62c-3.03,4.49-3.65,9.56-3.49,14.89
		c0.27,8.97,4.43,15.33,12.15,19.66c7.45,4.18,15.6,5.6,23.93,6.37C174.29,452.19,177.55,452.21,180.79,452.35z"/>
	<path class="st2" d="M579.77,399.21c0.43,13.66,5.02,25.7,14.96,35.17c8.97,8.54,19.81,13.87,32.13,15.52
		c7.29,0.98,14.74,1.78,22.05,1.43c14.63-0.71,28.9-3.52,41.68-11.27c6.28-3.81,12.35-7.96,18.32-11.83
		c10.21,10.21,20.79,20.79,31.78,31.78c-4.9,4.31-9.98,9.38-15.67,13.65c-12.72,9.55-26.65,17.08-42.02,21.3
		c-8.85,2.43-18,4-27.12,5.13c-7.52,0.93-15.24,1.31-22.77,0.71c-13.21-1.05-26.19-3.68-38.61-8.63
		c-13.23-5.27-25.35-12.45-35.53-22.35c-10.63-10.35-18.85-22.54-24.11-36.54c-5.1-13.58-8.55-27.53-9.05-42.1
		c-0.28-8.21-1.12-16.45-0.63-24.61c1.52-25.37,7.37-49.56,22.28-70.7c15.28-21.67,35.97-35.3,61.99-41.02
		c11.07-2.43,22.22-3.12,33.43-2.82c20.36,0.53,40.2,3.85,58.45,13.49c15.58,8.23,27.55,20.18,36.25,35.6
		c7.51,13.32,11.82,27.66,13.78,42.6c1.43,10.92,1.58,22.05,1.59,33.09c0,6.35-1.43,12.71-2.21,19.06
		c-0.48,2.82-2.64,2.37-4.58,2.37c-54,0-108-0.01-162,0.04C582.7,398.27,581.23,398.88,579.77,399.21z M708.06,356.25
		c0.06-1.95,0.11-3.9,0.17-5.85c-1.87-7.23-2.83-14.88-5.83-21.61c-4.95-11.12-13.67-19.24-24.4-25.09
		c-10.6-5.78-22.18-7.8-34.01-8.04c-5.65-0.12-11.41,0.99-17,2.15c-12.38,2.58-23.36,8.2-31.97,17.49
		c-10.53,11.36-14.65,25.42-15.27,40.64c1.21,0.34,2.42,0.99,3.63,0.99c40.44,0.05,80.87,0.05,121.31,0.01
		c1.14,0,2.28-0.49,3.43-0.75L708.06,356.25z"/>
	<path class="st2" d="M-33.05,500.29c-3.27-0.03-6.66,0.49-9.8-0.17c-11.75-2.48-23.66-4.59-35.06-8.25
		c-19.59-6.29-37.21-16.44-52.6-30.26c-2-1.8-4.1-3.49-5.89-5c11.99-12.03,23.67-23.77,35.09-35.23
		c7.42,5.19,14.94,10.77,22.78,15.87c11.34,7.38,23.99,11.38,37.29,13.51c16.86,2.69,33.51,2.11,49.63-3.82
		c8.26-3.04,16.1-7.02,21.14-14.85c6.58-10.24,1.99-24.82-9.66-28.45c-7.45-2.32-15.3-3.49-23.06-4.58
		c-9.66-1.35-19.45-1.81-29.12-3.14c-12.49-1.72-25.06-3.33-37.34-6.08c-16-3.59-30.6-10.38-42.08-22.69
		c-6.84-7.33-10.86-16.01-13.09-25.72c-4.09-17.78-1.67-34.5,8.62-49.58c9.02-13.22,21.31-22.83,36.23-28.65
		c8.34-3.26,16.88-6.32,25.6-8.22c12.8-2.78,25.85-4.08,39.04-2.36c6.63,0.87,13.35,0.97,20.01,1.6
		c12.86,1.21,25.16,4.92,37.16,9.39c13.22,4.93,25.75,11.36,37.08,19.92c0.77,0.58,1.41,1.32,2.47,2.32
		c-11.1,10.74-22.01,21.3-33.19,32.12c-2.22-1.21-4.61-2.4-6.89-3.75c-14.09-8.36-29.4-13.53-45.5-15.55
		c-17.04-2.14-34.19-2.43-50.61,4.25c-6.48,2.63-12.33,5.94-16.76,11.72c-4.89,6.38-3.13,18.13,4.43,23.42
		c8.13,5.69,17.34,8.3,27.1,9.49c7.88,0.96,15.7,2.46,23.59,3.29c6.06,0.64,12.21,0.36,18.28,0.94
		c20.98,1.99,41.52,5.71,59.39,17.92c13.08,8.93,21.39,21.08,23.55,37.02c2.89,21.33-0.74,41.29-13.85,58.69
		c-8.65,11.47-20.35,19.38-33.52,25.03c-12.26,5.26-25.27,7.73-38.36,9.71c-3.84,0.58-7.78,0.5-11.68,0.73
		c-0.53-0.23-1.05-0.66-1.58-0.66C-20.5,500.2-26.77,500.25-33.05,500.29z"/>
	<path class="st3" d="M519.88,486.79c-0.02-2.75-0.05-5.49-0.05-8.24c0-72.87,0-145.74,0-218.61c0-0.87-0.04-1.75-0.07-2.62
		c0.01-0.25,0.02-0.51,0.03-0.76c0.26,0.95,0.75,1.9,0.75,2.84c0.05,74.92,0.07,149.85,0.05,224.77
		C520.59,485.05,520.12,485.92,519.88,486.79z"/>
	<path class="st4" d="M245.4,495.66c17.57,0,35.14,0,53.14,0c0-1.71,0-3.17,0-4.63c-0.01-52.18-0.02-104.35,0-156.53
		c0-1.03,0.41-2.06,0.63-3.09c0.04,2.62,0.12,5.24,0.12,7.85c0.01,50.95,0.01,101.89,0.01,152.84c0,1.35,0,2.69,0,4.37
		c-6.44,0-12.65,0-18.85,0c-10.86,0-21.73,0.02-32.59-0.04c-1.07-0.01-2.14-0.5-3.21-0.77C244.89,495.67,245.15,495.66,245.4,495.66
		z"/>
	<path class="st5" d="M579.77,399.21c1.46-0.33,2.92-0.94,4.38-0.94c54-0.05,108-0.04,162-0.04c1.94,0,4.1,0.44,4.58-2.37
		c0,0.96,0,1.92,0,3.12c-1.46,0-2.82,0-4.18,0c-54.11,0-108.22,0-162.33,0.01C582.75,398.98,581.26,399.13,579.77,399.21z"/>
	<path class="st6" d="M519.79,256.57c-0.01,0.25-0.02,0.51-0.03,0.76c-17.97,0.01-35.93,0.02-53.9,0.03
		c-0.06-0.27-0.13-0.55-0.19-0.82C483.71,256.54,501.75,256.55,519.79,256.57z"/>
	<path class="st7" d="M465.67,256.53c0.06,0.27,0.13,0.55,0.19,0.82c-0.02,7.81-0.01,15.63-0.07,23.44
		c-0.01,0.93,0.63,3.23-1.71,1.29c0.33-1.08,0.94-2.16,0.95-3.25c0.09-6.43,0.02-12.87,0.07-19.3
		C465.11,258.53,465.47,257.53,465.67,256.53z"/>
	<path class="st8" d="M304.43,362.96c0,8.75,0,17.51,0,26.26c-0.21-1.14-0.6-2.28-0.61-3.42c-0.06-6.48-0.06-12.95,0-19.43
		C303.83,365.24,304.22,364.1,304.43,362.96z"/>
	<path class="st9" d="M244.66,330.82c0.21,5.68,0.53,11.36,0.58,17.05c0.02,2.76-0.47,5.52-0.73,8.27
		C244.56,347.7,244.61,339.26,244.66,330.82z"/>
	<path class="st10" d="M245.4,495.66c-0.26,0.01-0.51,0.01-0.77,0.02c-0.03-6.33-0.03-12.66-0.13-18.99
		c-0.02-1.13-0.44-2.26-0.67-3.39c2.23-1.12,1.39,0.9,1.4,1.54c0.08,5.45,0.04,10.91,0.05,16.36
		C245.29,492.68,245.36,494.17,245.4,495.66z"/>
	<path class="st11" d="M463.71,471.96c0.46-0.51,0.92-1.02,1.37-1.53c0.33,0.06,0.66,0.12,0.98,0.18
		c-0.29,6.53-0.58,13.07-0.87,19.6c-0.05-5.2-0.03-10.39-0.21-15.58C464.97,473.72,464.16,472.84,463.71,471.96z"/>
	<path class="st12" d="M-33.05,500.29c6.28-0.04,12.56-0.09,18.83-0.09c0.53,0,1.05,0.43,1.58,0.66c-6.3,0.05-12.59,0.12-18.89,0.12
		C-32.04,500.98-32.54,500.53-33.05,500.29z"/>
	<path class="st11" d="M463.94,472.28c-0.08-0.08-0.16-0.17-0.25-0.25c0.09-0.03,0.17-0.06,0.26-0.08
		C463.96,471.94,463.94,472.28,463.94,472.28z"/>
	<path class="st0" d="M465.19,389.14c-0.29,7.07-0.49,14.14-0.9,21.21c-0.48,8.32-4.17,15.35-9.36,21.63
		c-7.92,9.56-18.5,14.9-30.24,17.8c-12.81,3.17-25.47,1.49-37.68-3.24c-9.01-3.49-16.93-8.57-22.67-16.61
		c-4.34-6.08-6.54-12.9-7.27-20.25c-0.56-5.65-1.1-11.3-1.64-16.94c0-10.81,0-21.62-0.01-32.43c0.55-6.15,1.35-12.3,1.59-18.46
		c0.54-13.95,7.22-24.25,18.25-32.19c11.03-7.94,23.51-11.41,36.89-11.09c16.96,0.41,31.87,5.97,42.91,19.57
		c5.67,6.99,8.91,14.99,9.27,24.07c0.26,6.45,0.58,12.9,0.87,19.35C465.19,370.74,465.19,379.94,465.19,389.14z"/>
	<path class="st13" d="M355.41,360.3c0,10.81,0,21.62,0.01,32.43c-0.22-4.22-0.64-8.43-0.61-12.65
		C354.85,373.49,355.19,366.89,355.41,360.3z"/>
	<path class="st14" d="M465.19,389.14c0-9.2,0-18.4,0-27.6c0.22,2.18,0.66,4.35,0.63,6.53C465.7,375.09,465.41,382.11,465.19,389.14
		z"/>
	<path class="st0" d="M245.09,413.92c-1.05,5.26-1.64,10.68-3.25,15.77c-4.02,12.72-14.02,18.47-26.28,20.98
		c-4.6,0.94-9.35,1.15-14.03,1.7c-6.91,0-13.83-0.01-20.74-0.01c-3.24-0.14-6.5-0.16-9.73-0.45c-8.33-0.76-16.48-2.19-23.93-6.37
		c-7.72-4.33-11.88-10.69-12.15-19.66c-0.16-5.34,0.46-10.41,3.49-14.89c3.93-5.82,10.17-8.12,16.51-9.62
		c6.24-1.48,12.71-2.02,19.07-2.97c1.17,0.19,2.34,0.55,3.51,0.55c20.98,0.04,41.96,0.04,62.94,0.05c1.31,0,2.63,0,3.75,0
		C244.55,404.31,244.82,409.11,245.09,413.92z"/>
	<path class="st15" d="M245.09,413.92c-0.27-4.8-0.54-9.61-0.84-14.94c-1.12,0-2.43,0-3.75,0c-20.98-0.01-41.96,0-62.94-0.05
		c-1.17,0-2.34-0.36-3.51-0.55c23.56,0,47.12,0,71.03,0C245.09,403.56,245.09,408.74,245.09,413.92z"/>
	<path class="st16" d="M180.79,452.35c6.92,0,13.83,0.01,20.74,0.01C194.62,452.36,187.7,452.36,180.79,452.35z"/>
	<path class="st0" d="M579.76,355.94c0.62-15.23,4.74-29.28,15.27-40.64c8.61-9.29,19.59-14.91,31.97-17.49
		c5.58-1.16,11.34-2.27,17-2.15c11.83,0.25,23.41,2.27,34.01,8.04c10.73,5.85,19.45,13.97,24.4,25.09c3,6.73,3.95,14.38,5.83,21.61
		c-0.06,1.95-0.11,3.9-0.17,5.85c0,0,0.07-0.06,0.07-0.06c-41.93,0.01-83.86,0.02-125.79,0.02
		C581.48,356.21,580.62,356.03,579.76,355.94z"/>
	<path class="st17" d="M579.76,355.94c0.86,0.09,1.72,0.27,2.58,0.27c41.93,0,83.86-0.01,125.79-0.02
		c-1.14,0.26-2.28,0.75-3.43,0.75c-40.44,0.04-80.87,0.04-121.31-0.01C582.18,356.93,580.97,356.28,579.76,355.94z"/>
	<path class="st17" d="M708.06,356.25c0.06-1.95,0.11-3.9,0.17-5.85C708.17,352.35,708.12,354.3,708.06,356.25z"/>
</g>
</svg>
