<?xml version="1.0" encoding="utf-8"?>
<!-- Generator: Adobe Illustrator 24.1.1, SVG Export Plug-In . SVG Version: 6.00 Build 0)  -->
<svg version="1.1" id="Layer_1" xmlns="http://www.w3.org/2000/svg" xmlns:xlink="http://www.w3.org/1999/xlink" x="0px" y="0px"
	 viewBox="0 0 612 792" style="enable-background:new 0 0 612 792;" xml:space="preserve">
<style type="text/css">
	.st0{fill:#002332;}
	.st1{fill:#FEFEFE;}
	.st2{fill:#01DB06;}
	.st3{fill:#01DB07;}
	.st4{fill:#00DB06;}
	.st5{fill:#C3F6C4;}
	.st6{fill:#9BF09D;}
	.st7{fill:#87EE8A;}
	.st8{fill:#12DD18;}
	.st9{fill:#99F09B;}
	.st10{fill:#70EB73;}
	.st11{fill:#75EB78;}
	.st12{fill:#F0FCF0;}
	.st13{fill:#6EEA72;}
	.st14{fill:#70EB74;}
	.st15{fill:#56E75A;}
	.st16{fill:#76EB79;}
	.st17{fill:#E9FBE9;}
	.st18{fill:#4BE64F;}
</style>
<g>
	<path class="st0" d="M-144,570.24c0-116.75,0-233.5,0-350.24c300,0,600,0,900,0c0,116.75,0,233.5,0,350.24
		C456,570.24,156,570.24-144,570.24z M462.35,445.47l-0.21,0.01c0.45,0.89,1.26,1.76,1.29,2.66c0.17,5.19,0.16,10.38,0.21,15.57
		c-0.82,15.99-8.73,27.82-21.83,36.4c-8.04,5.26-16.93,8.67-26.47,10.19c-7.98,1.27-15.95,2.16-24.03,0.37
		c-11.36-2.51-21.68-7.27-31.21-13.79c-2.27-1.55-3.62-1.48-5.6,0.54c-10.4,10.59-20.97,21.02-31.47,31.52
		c-0.76,0.76-1.43,1.62-2.51,2.85c1.08,0.86,1.94,1.59,2.84,2.25c2.59,1.87,5.18,3.75,7.82,5.56c20.12,13.79,42,22.79,66.67,23.84
		c11.59,0.49,23.11-0.19,34.52-2.71c11.87-2.62,23.31-6.43,33.6-12.87c8.12-5.08,16.32-10.35,23.32-16.79
		c11.17-10.28,18.31-23.53,22.86-37.9c2.69-8.49,4.31-17.35,5.96-26.13c0.68-3.65,0.19-7.52,0.22-11.28
		c0.22-0.89,0.62-1.78,0.62-2.67c0.03-73.22,0.03-146.45-0.01-219.67c0-0.95-0.49-1.89-0.75-2.84c-17.64-0.03-35.28-0.07-52.92-0.07
		c-0.57,0-1.14,0.5-1.71,0.77c-0.11,8.23-0.22,16.47-0.33,24.7c-1.25-0.97-2.65-1.8-3.72-2.93c-16.67-17.64-37.45-26.24-61.41-26.89
		c-9.61-0.26-19.38,0.68-28.89,2.2c-19.05,3.04-34.58,12.79-46.84,27.44c-12.77,15.27-17.67,33.53-18.61,53.02
		c-0.45,9.3-0.61,18.62-0.9,27.92c-0.22,1.14-0.61,2.27-0.62,3.41c-0.06,6.46-0.06,12.93,0,19.39c0.01,1.14,0.4,2.27,0.61,3.41
		c0.29,5.69,0.39,11.4,0.9,17.07c0.84,9.32,1.49,18.69,3.05,27.89c3.44,20.3,13.98,36.27,30.71,48.34
		c14.45,10.41,30.65,16.28,48.18,18c9.86,0.97,19.82,0.18,29.65-1.97c18.42-4.02,34.13-12.6,46.93-26.45
		C462.42,445.71,462.43,445.59,462.35,445.47z M243.1,469.16c1.07,0.27,2.15,0.76,3.22,0.76c11.49,0.06,22.97,0.03,34.46,0.03
		c5.58,0,11.16,0,16.97,0c0-1.68,0-3.02,0-4.37c0-50.83,0-101.66-0.01-152.5c0-2.61-0.08-5.22-0.12-7.84
		c-0.21-1.94-0.51-3.88-0.62-5.83c-0.63-10.7-3.29-20.92-8.22-30.39c-8.81-16.92-22.91-27.68-40.68-34.2
		c-17.24-6.32-35.17-8.1-53.28-8.78c-5.93-0.22-11.92,0.15-17.84,0.72c-8.7,0.85-17.59,1.25-26,3.4
		c-20.43,5.21-39.46,13.66-56.11,26.96c-2.07,1.66-2.29,2.51-0.52,4.27c10.37,10.28,20.69,20.61,31.04,30.92
		c3.38-2.19,6.57-4.46,9.95-6.41c14.69-8.49,30.49-13.51,47.49-14.21c5.8-0.24,11.64,0.42,17.47,0.59
		c9.94,0.29,19.44,2.56,27.86,7.73c8.47,5.2,14.03,12.77,14.96,23.09c-0.05,8.94-0.1,17.88-0.16,26.82
		c-0.24,0.07-0.49,0.13-0.73,0.2c-26.75,0-53.49,0-80.24,0c-2.26,0.09-4.54-0.02-6.76,0.31c-4.54,0.69-9.02,1.94-13.58,2.39
		c-10.15,1-19.43,4.82-27.67,10.19c-10.83,7.04-18.79,16.9-22.86,29.56c-4.87,15.16-4.69,30.62-1.6,45.82
		c5.09,25.03,20.09,42.16,44.59,50.3c17.07,5.67,34.67,6.71,52.55,5.08c14.13-1.29,27.39-4.99,39.35-12.68
		c6.11-3.93,12.26-7.92,16.27-14.28c0.23,1.13,0.65,2.25,0.67,3.38C243.07,456.52,243.07,462.84,243.1,469.16z M578.25,372.79
		c1.5-0.04,2.99-0.12,4.49-0.12c54.1-0.01,108.2,0,162.3-0.04c1.36,0,2.72-0.46,4.09-0.71c0.79-7.85,1.97-15.68,2.29-23.54
		c0.56-13.99-0.7-27.87-3.63-41.61c-3.89-18.29-11.4-34.81-23.93-48.78c-10.44-11.64-23.57-19.34-38.25-24.61
		c-14.3-5.13-29.16-6.92-44.17-7.28c-8.71-0.21-17.52,0.3-26.16,1.47c-18.11,2.45-34.65,9.05-49.02,20.56
		c-7.77,6.22-14.66,13.27-20.34,21.49c-14.67,21.25-20.92,45.24-22.28,70.56c-1,18.68,0.51,37.25,5.8,55.41
		c5.02,17.25,13.04,32.84,25.8,45.47c6.42,6.35,14.03,11.68,21.69,16.56c16.63,10.6,35.41,15.02,54.8,16.65
		c7.65,0.64,15.47,0.07,23.14-0.7c7.62-0.77,15.25-2.04,22.69-3.87c12.66-3.12,24.35-8.75,35.48-15.45
		c9.75-5.88,18.37-13.19,26.01-20.88c-10.82-10.79-21.4-21.35-31.98-31.91c-3.43,2.57-6.94,5.6-10.83,8.05
		c-10.42,6.56-21.47,11.6-33.8,13.67c-11.32,1.89-22.64,2.77-34,1.05c-9.17-1.39-17.96-4.12-25.95-9.12
		C586.81,405.29,578.81,391.18,578.25,372.79z M80,259.76c-1.41-1.27-2.29-2.35-3.42-3.02c-7.4-4.39-14.67-9.07-22.33-12.96
		c-23.94-12.16-49.66-17.1-76.32-17.75c-4.07-0.1-8.16,0.76-12.23,0.63c-11.26-0.36-22.06,1.95-32.75,5.1
		c-9.84,2.9-19.42,6.49-27.94,12.28c-5.3,3.6-10.53,7.41-15.24,11.73c-3.03,2.77-5.22,6.52-7.53,10
		c-10.01,15.11-12.61,31.58-8.67,49.14c2.19,9.76,6.18,18.6,13.18,26.01c11.55,12.21,26.1,18.99,42.08,22.62
		c11.72,2.67,23.71,4.28,35.64,5.92c10.09,1.39,20.29,1.89,30.38,3.27c7.88,1.08,15.94,2.08,23.41,4.6
		c13.09,4.4,15.7,18.91,9.51,28.59c-4.91,7.68-12.71,11.48-20.72,14.54c-15.34,5.85-31.43,6.68-47.47,4.37
		c-15.21-2.19-29.81-6.86-42.65-15.71c-6.78-4.67-13.28-9.74-19.25-14.15c-11.8,11.77-23.51,23.45-35.41,35.31
		c3.93,3.42,8.02,7.4,12.55,10.81c13.78,10.37,28.78,18.6,45.09,24.29c14.97,5.22,30.39,8.44,46.29,8.67
		c10.44,0.15,20.99,0.56,31.32-0.64c10.19-1.19,20.32-3.7,30.17-6.64c16.58-4.96,31.01-13.9,41.58-27.7
		c13.21-17.26,16.85-37.21,13.99-58.5c-2.17-16.2-10.65-28.46-24.02-37.44c-17.6-11.83-37.76-15.51-58.33-17.56
		c-6.31-0.63-12.71-0.33-19.02-0.96c-7.95-0.8-15.84-2.12-23.76-3.2c-9.72-1.32-18.99-4.04-27.05-9.76
		c-7.45-5.29-9.13-16.88-3.99-23.44c4.31-5.49,9.97-8.8,16.2-11.31c16.69-6.72,34.14-6.6,51.49-4.31
		c16.06,2.12,31.29,7.37,45.36,15.64c2.18,1.28,4.43,2.45,6.56,3.63C57.86,281.14,68.7,270.67,80,259.76z"/>
	<path class="st1" d="M-144,570.24c300,0,600,0,900,0c-0.12,0.25-0.24,0.71-0.38,0.72c-1,0.06-2,0.03-3,0.03
		c-297.75,0-595.5,0-893.25-0.03C-141.75,570.96-142.88,570.49-144,570.24z"/>
	<path class="st2" d="M302.89,336.74c0.29-9.31,0.45-18.62,0.9-27.92c0.94-19.49,5.84-37.75,18.61-53.02
		c12.26-14.66,27.79-24.4,46.84-27.44c9.52-1.52,19.28-2.46,28.89-2.2c23.96,0.65,44.75,9.26,61.41,26.89
		c1.07,1.14,2.48,1.96,3.73,2.93c0.2,0.24,0.41,0.49,0.61,0.73c0.12-0.32,0.35-0.63,0.35-0.95c0.06-8.15,0.1-16.31,0.14-24.46
		c17.94,0.01,35.87,0.02,53.81,0.03c0.02,1,0.07,1.99,0.07,2.99c0,72.57,0,145.13,0.01,217.7c0,1.24,0.06,2.49,0.1,3.73
		c-0.04,3.77,0.46,7.64-0.22,11.28c-1.65,8.78-3.27,17.64-5.96,26.13c-4.55,14.37-11.7,27.62-22.86,37.9
		c-7,6.44-15.21,11.72-23.32,16.79c-10.29,6.44-21.73,10.25-33.6,12.87c-11.41,2.52-22.92,3.21-34.52,2.71
		c-24.67-1.05-46.55-10.05-66.67-23.84c-2.64-1.81-5.23-3.69-7.82-5.56c-0.91-0.66-1.76-1.39-2.84-2.25
		c1.08-1.24,1.75-2.09,2.51-2.85c10.5-10.5,21.07-20.92,31.47-31.52c1.98-2.02,3.33-2.09,5.6-0.54
		c9.53,6.52,19.85,11.27,31.21,13.79c8.08,1.79,16.05,0.9,24.03-0.37c9.53-1.52,18.42-4.93,26.47-10.19
		c13.1-8.57,21.01-20.41,21.83-36.4c0.29-6.53,0.58-13.07,0.86-19.61c-0.33-0.06-0.67-0.12-1-0.18c-0.45,0.52-0.91,1.03-1.36,1.55
		c0,0,0.21-0.01,0.2-0.01c-0.1,0.03-0.19,0.06-0.29,0.08c0.09,0.09,0.17,0.19,0.26,0.28c-12.79,13.85-28.51,22.43-46.93,26.45
		c-9.83,2.14-19.79,2.94-29.65,1.97c-17.54-1.72-33.74-7.59-48.18-18c-16.73-12.06-27.27-28.04-30.71-48.34
		c-1.56-9.21-2.21-18.58-3.05-27.89c-0.51-5.67-0.62-11.38-0.9-17.07C302.89,354.21,302.89,345.48,302.89,336.74z M463.62,334.6
		c-0.29-6.18-0.26-12.4-0.98-18.53c-0.56-4.82-1.25-9.9-3.27-14.22c-11.89-25.42-39-32.34-61.93-28.29
		c-10.52,1.86-20.01,6.17-28,13.24c-6.76,5.98-12.07,13.18-13.12,22.45c-1.12,9.91-1.66,19.9-2.45,29.85
		c-0.21,4.52-0.57,9.05-0.6,13.57c-0.02,3.4,0.38,6.81,0.6,10.22c0.54,6.27,1.24,12.53,1.59,18.81
		c1.08,19.07,11.7,30.48,27.55,37.32c11.97,5.17,24.44,7.58,37.58,4.61c7.13-1.61,14.11-3.48,20.12-7.71
		c3.63-2.55,6.8-5.74,10.27-8.52c6.15-4.93,9.83-11.48,10.89-19.04c1.15-8.18,1.21-16.51,1.74-24.77c0.22-7.74,0.5-15.48,0.63-23.22
		C464.29,338.44,463.85,336.52,463.62,334.6z"/>
	<path class="st3" d="M578.25,372.79c0.56,18.39,8.55,32.5,24.22,42.32c7.98,5,16.77,7.73,25.95,9.12c11.36,1.72,22.68,0.84,34-1.05
		c12.33-2.06,23.38-7.1,33.8-13.67c3.88-2.44,7.39-5.47,10.83-8.05c10.59,10.56,21.16,21.12,31.98,31.91
		c-7.64,7.69-16.26,15.01-26.01,20.88c-11.13,6.71-22.82,12.33-35.48,15.45c-7.43,1.83-15.07,3.1-22.69,3.87
		c-7.67,0.77-15.49,1.34-23.14,0.7c-19.39-1.63-38.17-6.05-54.8-16.65c-7.66-4.88-15.27-10.21-21.69-16.56
		c-12.77-12.63-20.78-28.22-25.8-45.47c-5.29-18.16-6.8-36.72-5.8-55.41c1.36-25.31,7.61-49.3,22.28-70.56
		c5.68-8.23,12.58-15.27,20.34-21.49c14.37-11.5,30.91-18.11,49.02-20.56c8.63-1.17,17.45-1.68,26.16-1.47
		c15.01,0.36,29.87,2.15,44.17,7.28c14.69,5.27,27.81,12.97,38.25,24.61c12.53,13.97,20.04,30.49,23.93,48.78
		c2.92,13.74,4.18,27.62,3.63,41.61c-0.31,7.86-1.5,15.69-2.29,23.54c-37.33,0-74.66,0-111.98-0.01c-18.6,0-37.2-0.01-55.8,0.04
		C580.31,371.96,579.28,372.5,578.25,372.79z M706.47,330.04c0.05-1.48,0.11-2.95,0.16-4.43c-0.06-1.74,0.07-3.52-0.22-5.22
		c-2.61-15.6-9.76-28.55-22.62-38.1c-12.31-9.14-26.51-12.47-41.47-12.71c-5.54-0.09-11.15,1.05-16.63,2.13
		c-12.43,2.46-23.41,8.08-32.06,17.31c-10.67,11.4-14.94,25.5-15.37,40.89c-0.07,0.1-0.17,0.2-0.2,0.31
		c-0.02,0.08,0.04,0.26,0.08,0.27c0.84,0.11,1.69,0.28,2.53,0.28c40.94,0.01,81.87,0.02,122.81-0.02c1.02,0,2.03-0.49,3.05-0.75
		L706.47,330.04z"/>
	<path class="st4" d="M243.12,303.12c-0.92-10.31-6.49-17.88-14.96-23.09c-8.42-5.18-17.93-7.45-27.86-7.73
		c-5.83-0.17-11.66-0.83-17.47-0.59c-17,0.7-32.8,5.72-47.49,14.21c-3.38,1.95-6.57,4.22-9.95,6.41
		c-10.35-10.32-20.67-20.64-31.04-30.92c-1.77-1.76-1.56-2.61,0.52-4.27c16.64-13.31,35.68-21.76,56.11-26.96
		c8.41-2.14,17.3-2.55,26-3.4c5.92-0.58,11.91-0.95,17.84-0.72c18.11,0.68,36.05,2.46,53.28,8.78c17.77,6.51,31.88,17.28,40.68,34.2
		c4.93,9.47,7.59,19.69,8.22,30.39c0.11,1.95,0.41,3.89,0.62,5.83c-0.22,1.03-0.63,2.05-0.63,3.08c-0.02,52.06-0.01,104.13,0,156.19
		c0,1.45,0,2.91,0,4.61c-18,0-35.57,0-53.14,0c-0.04-1.48-0.11-2.97-0.12-4.45c-0.01-5.45,0.03-10.89-0.05-16.34
		c-0.01-0.64,0.84-2.67-1.4-1.53c-4.01,6.36-10.16,10.35-16.27,14.28c-11.97,7.69-25.22,11.39-39.35,12.68
		c-17.88,1.63-35.48,0.59-52.55-5.08c-24.5-8.14-39.49-25.27-44.59-50.3c-3.09-15.2-3.28-30.66,1.6-45.82
		c4.07-12.67,12.03-22.52,22.86-29.56c8.24-5.36,17.52-9.19,27.67-10.19c4.56-0.45,9.03-1.7,13.58-2.39
		c2.22-0.34,4.5-0.22,6.76-0.31c1.19,0.21,2.39,0.61,3.58,0.61c24.23,0.03,48.45,0.03,72.68-0.01c1.32,0,2.65-0.39,3.97-0.6
		c0.24-0.07,0.49-0.13,0.73-0.2c0.26-2.25,0.77-4.51,0.75-6.76C243.63,316.49,243.33,309.81,243.12,303.12z M200.06,425.94
		c3.92-0.36,7.89-0.42,11.74-1.15c7.68-1.44,15.16-3.73,20.89-9.35c8.81-8.65,10.67-19.87,10.91-31.56c0-3.93,0-7.85,0-11.8
		c-23.95,0-47.52,0-71.08,0c-6.36,0.95-12.79,1.58-19.06,2.94c-6.62,1.44-13.14,4.03-16.72,10.09
		c-6.84,11.59-4.23,28.84,11.51,35.52c8.57,3.64,17.5,5.02,26.68,5.31C183.31,425.94,191.69,425.94,200.06,425.94z"/>
	<path class="st3" d="M80,259.76c-11.3,10.91-22.14,21.38-33.26,32.13c-2.14-1.18-4.38-2.35-6.56-3.63
		c-14.07-8.27-29.3-13.53-45.36-15.64c-17.35-2.29-34.8-2.41-51.49,4.31c-6.23,2.51-11.89,5.82-16.2,11.31
		c-5.14,6.56-3.46,18.15,3.99,23.44c8.06,5.72,17.33,8.44,27.05,9.76c7.92,1.07,15.81,2.4,23.76,3.2
		c6.31,0.63,12.71,0.33,19.02,0.96c20.58,2.05,40.73,5.73,58.33,17.56c13.37,8.98,21.84,21.24,24.02,37.44
		c2.86,21.29-0.78,41.24-13.99,58.5c-10.56,13.8-25,22.74-41.58,27.7c-9.85,2.95-19.99,5.45-30.17,6.64
		c-10.33,1.2-20.87,0.79-31.32,0.64c-15.9-0.23-31.33-3.45-46.29-8.67c-16.3-5.69-31.31-13.92-45.09-24.29
		c-4.53-3.41-8.62-7.4-12.55-10.81c11.89-11.86,23.61-23.54,35.41-35.31c5.97,4.4,12.47,9.47,19.25,14.15
		c12.84,8.86,27.45,13.52,42.65,15.71c16.03,2.31,32.13,1.48,47.47-4.37c8.02-3.06,15.81-6.86,20.72-14.54
		c6.19-9.68,3.57-24.19-9.51-28.59c-7.48-2.52-15.53-3.52-23.41-4.6c-10.09-1.38-20.29-1.88-30.38-3.27
		c-11.93-1.64-23.92-3.25-35.64-5.92c-15.99-3.64-30.54-10.41-42.08-22.62c-7.01-7.41-10.99-16.25-13.18-26.01
		c-3.94-17.57-1.34-34.04,8.67-49.14c2.31-3.48,4.5-7.23,7.53-10c4.71-4.31,9.94-8.13,15.24-11.73c8.52-5.79,18.1-9.38,27.94-12.28
		c10.68-3.15,21.48-5.46,32.75-5.1c4.06,0.13,8.16-0.73,12.23-0.63c26.66,0.65,52.38,5.59,76.32,17.75
		c7.66,3.89,14.93,8.57,22.33,12.96C77.71,257.41,78.59,258.49,80,259.76z"/>
	<path class="st5" d="M518.35,455.76c-0.03-1.24-0.1-2.49-0.1-3.73c0-72.57,0-145.13-0.01-217.7c0-1-0.04-1.99-0.07-2.99
		c0.01-0.25,0.03-0.51,0.04-0.76c0.26,0.95,0.75,1.89,0.75,2.84c0.04,73.22,0.04,146.45,0.01,219.67
		C518.97,453.98,518.57,454.87,518.35,455.76z"/>
	<path class="st6" d="M243.87,469.14c17.57,0,35.14,0,53.14,0c0-1.7,0-3.16,0-4.61c-0.01-52.06-0.02-104.13,0-156.19
		c0-1.03,0.41-2.05,0.63-3.08c0.04,2.61,0.11,5.22,0.12,7.84c0.01,50.83,0.01,101.66,0.01,152.5c0,1.35,0,2.69,0,4.37
		c-5.81,0-11.39,0-16.97,0c-11.49,0-22.97,0.02-34.46-0.03c-1.08-0.01-2.15-0.5-3.22-0.76
		C243.35,469.15,243.61,469.15,243.87,469.14z"/>
	<path class="st7" d="M578.25,372.79c1.03-0.29,2.06-0.83,3.09-0.83c18.6-0.05,37.2-0.04,55.8-0.04c37.33,0,74.66,0,111.98,0.01
		c-1.36,0.25-2.72,0.71-4.09,0.71c-54.1,0.04-108.2,0.03-162.3,0.04C581.25,372.68,579.75,372.75,578.25,372.79z"/>
	<path class="st8" d="M242.23,330.14c-1.32,0.21-2.65,0.59-3.97,0.6c-24.23,0.04-48.45,0.04-72.68,0.01c-1.19,0-2.39-0.4-3.58-0.61
		C188.74,330.14,215.49,330.14,242.23,330.14z"/>
	<path class="st9" d="M518.22,230.58c-0.01,0.25-0.03,0.51-0.04,0.76c-17.94-0.01-35.87-0.02-53.81-0.03
		c-0.26-0.01-0.52-0.02-0.78-0.02c0.57-0.27,1.14-0.77,1.71-0.77C482.94,230.5,500.58,230.54,518.22,230.58z"/>
	<path class="st10" d="M243.12,303.12c0.21,6.69,0.51,13.37,0.59,20.06c0.03,2.25-0.48,4.5-0.75,6.76
		C243.02,321,243.07,312.06,243.12,303.12z"/>
	<path class="st11" d="M463.6,231.28c0.26,0.01,0.52,0.02,0.78,0.02c-0.04,8.15-0.08,16.31-0.14,24.46c0,0.32-0.23,0.63-0.35,0.95
		c-0.2-0.24-0.41-0.49-0.61-0.73C463.37,247.75,463.48,239.51,463.6,231.28z"/>
	<path class="st12" d="M302.89,336.74c0,8.73,0,17.47,0,26.2c-0.21-1.14-0.6-2.27-0.61-3.41c-0.06-6.46-0.06-12.93,0-19.39
		C302.28,339.01,302.67,337.88,302.89,336.74z"/>
	<path class="st11" d="M243.87,469.14c-0.26,0.01-0.51,0.02-0.77,0.03c-0.03-6.32-0.03-12.64-0.13-18.96
		c-0.02-1.13-0.44-2.26-0.67-3.38c2.24-1.15,1.39,0.88,1.4,1.53c0.08,5.44,0.04,10.89,0.05,16.34
		C243.75,466.17,243.83,467.65,243.87,469.14z"/>
	<path class="st13" d="M462.14,445.48c0.45-0.52,0.91-1.03,1.36-1.55c0.33,0.06,0.67,0.12,1,0.18c-0.29,6.54-0.58,13.07-0.86,19.61
		c-0.05-5.19-0.03-10.39-0.21-15.57C463.4,447.24,462.59,446.36,462.14,445.48z"/>
	<path class="st13" d="M462.32,445.83c-0.09-0.09-0.17-0.19-0.26-0.28c0.1-0.03,0.19-0.06,0.29-0.08
		C462.43,445.59,462.42,445.71,462.32,445.83z"/>
	<path class="st0" d="M463.62,363.58c-0.54,8.26-0.6,16.59-1.74,24.77c-1.06,7.57-4.74,14.11-10.89,19.04
		c-3.47,2.78-6.65,5.97-10.27,8.52c-6.01,4.23-12.99,6.1-20.12,7.71c-13.15,2.97-25.61,0.56-37.58-4.61
		c-15.85-6.85-26.47-18.25-27.55-37.32c-0.36-6.28-1.05-12.54-1.59-18.81c0-7.93,0-15.86,0-23.79c0.79-9.95,1.32-19.93,2.45-29.85
		c1.05-9.28,6.37-16.48,13.12-22.45c7.98-7.06,17.48-11.38,28-13.24c22.93-4.05,50.04,2.87,61.93,28.29
		c2.02,4.32,2.7,9.4,3.27,14.22c0.72,6.13,0.69,12.35,0.98,18.53C463.62,344.26,463.62,353.92,463.62,363.58z"/>
	<path class="st14" d="M463.62,363.58c0-9.66,0-19.32,0-28.98c0.22,1.92,0.67,3.85,0.63,5.76
		C464.13,348.1,463.85,355.84,463.62,363.58z"/>
	<path class="st15" d="M353.87,339.09c0,7.93,0,15.86,0,23.79c-0.22-3.41-0.62-6.81-0.6-10.22
		C353.3,348.14,353.66,343.62,353.87,339.09z"/>
	<path class="st0" d="M578.26,329.89c0.42-15.39,4.69-29.49,15.37-40.89c8.64-9.23,19.63-14.85,32.06-17.31
		c5.48-1.08,11.1-2.22,16.63-2.13c14.97,0.24,29.16,3.57,41.47,12.71c12.86,9.55,20.01,22.5,22.62,38.1
		c0.29,1.71,0.15,3.48,0.22,5.22c-0.05,1.48-0.11,2.95-0.16,4.43c0,0,0.06-0.05,0.06-0.05c-28.8,0.01-57.59,0.04-86.39,0.03
		C606.18,330,592.22,329.93,578.26,329.89z"/>
	<path class="st16" d="M578.26,329.89c13.96,0.04,27.92,0.11,41.88,0.11c28.8,0.01,57.59-0.01,86.39-0.03
		c-1.02,0.26-2.03,0.75-3.05,0.75c-40.94,0.04-81.87,0.03-122.81,0.02c-0.84,0-1.69-0.17-2.53-0.28c-0.04-0.01-0.1-0.19-0.08-0.27
		C578.09,330.09,578.19,330,578.26,329.89z"/>
	<path class="st16" d="M706.47,330.04c0.05-1.48,0.11-2.95,0.16-4.43C706.57,327.08,706.52,328.56,706.47,330.04z"/>
	<path class="st0" d="M243.61,383.88c-0.24,11.69-2.1,22.91-10.91,31.56c-5.73,5.63-13.22,7.91-20.89,9.35
		c-3.85,0.72-7.82,0.79-11.74,1.15c-8.37,0-16.75,0-25.12,0c-9.19-0.29-18.12-1.67-26.68-5.31c-15.73-6.68-18.35-23.92-11.51-35.52
		c3.58-6.06,10.1-8.65,16.72-10.09c6.27-1.37,12.7-1.99,19.06-2.94c1.17,0.19,2.33,0.55,3.5,0.55c20.92,0.04,41.84,0.04,62.76,0.05
		c1.33,0,2.66,0,3.9,0C243.01,376.66,243.31,380.27,243.61,383.88z"/>
	<path class="st17" d="M243.61,383.88c-0.3-3.61-0.59-7.22-0.92-11.2c-1.24,0-2.57,0-3.9,0c-20.92-0.01-41.84,0-62.76-0.05
		c-1.17,0-2.33-0.36-3.5-0.55c23.56,0,47.12,0,71.08,0C243.61,376.02,243.61,379.95,243.61,383.88z"/>
	<path class="st18" d="M174.94,425.94c8.37,0,16.75,0,25.12,0C191.69,425.94,183.31,425.94,174.94,425.94z"/>
</g>
</svg>
