<?xml version="1.0" encoding="utf-8"?>
<!-- Generator: Adobe Illustrator 24.1.1, SVG Export Plug-In . SVG Version: 6.00 Build 0)  -->
<svg version="1.1" id="Layer_1" xmlns="http://www.w3.org/2000/svg" xmlns:xlink="http://www.w3.org/1999/xlink" x="0px" y="0px"
	 viewBox="0 0 612 792" style="enable-background:new 0 0 612 792;" xml:space="preserve">
<style type="text/css">
	.st0{fill:#FDFEFD;}
	.st1{fill:#01DB07;}
</style>
<g>
	<path class="st0" d="M-294,630c0-155.86,0-311.9,0-468c399.94,0,799.89,0,1200,0c0,155.9,0,311.86,0,468
		C506.11,630,106.06,630-294,630z M326.04,577.91c0.17,0.24,0.38,0.74,0.75,1.03c44.87,35.77,94.9,50.9,151.75,37.06
		c29.05-7.07,55.06-20.47,75.35-42.75c23.79-26.12,34.75-58.11,35-92.86c0.74-100.37,0.32-200.74,0.35-301.11
		c0-0.79-0.19-1.57-0.3-2.35c-24.17,0-48.08,0-72.65,0c0,11.45,0,22.6,0,35.06c-1.79-2.05-2.61-3.07-3.51-4.01
		c-11.82-12.47-25.27-22.63-41.3-29.15c-24.36-9.9-49.62-11.17-75.13-6.76c-43.31,7.48-73.36,31.21-87.46,73.64
		c-5.06,15.23-5.7,31.09-6.13,46.89c-0.98,36.16-2.09,72.32,2.21,108.39c4.45,37.35,22.6,65.42,55.52,83.96
		c50.96,28.71,115.44,19.77,153.35-21.13c0.6-0.64,1.36-1.14,2.34-1.95c0,9.21,0.37,17.86-0.08,26.47
		c-0.95,18.16-8.6,33.16-23.28,43.96c-29.78,21.9-61.89,25.18-95.65,10.38c-8.14-3.57-15.71-8.45-23.36-12.64
		C357.86,546.03,341.98,561.94,326.04,577.91z M895.66,365.5c0.41-0.82,0.69-1.23,0.83-1.68c0.2-0.63,0.34-1.29,0.43-1.95
		c4.05-30.84,4.04-61.55-3.97-91.81c-12.69-47.95-42.04-80.03-90.5-93.31c-27.36-7.5-55.24-9.12-83.2-4.67
		c-50.06,7.98-86.82,34.53-107.08,81.38c-19.91,46.05-21.14,93.85-8.19,141.89c10.84,40.2,34.85,70.68,72.64,88.71
		c53.22,25.4,106.59,23.51,159.23-2.37c17.89-8.8,33.51-20.86,46.64-34.65c-14.22-14.26-28.17-28.25-42.19-42.3
		c-0.22,0.18-0.88,0.68-1.52,1.22c-32.68,27.94-70.51,35.46-111.74,26.92c-22.45-4.65-40.55-16.63-51.36-37.7
		c-4.69-9.13-7.06-18.89-6.63-29.68C744.88,365.5,820.33,365.5,895.66,365.5z M222.45,309.05c-2.38,0-4.19,0-6,0
		c-32.67,0.01-65.33-0.12-98,0.1c-15.37,0.11-30.56,2.17-45.25,6.95c-25.83,8.39-45.16,23.9-53.86,50.5
		c-5.66,17.3-5.89,35.14-3.19,52.92c5.25,34.65,23.35,59.68,56.49,72.64c25.08,9.81,51.2,11.31,77.68,8.3
		c23.57-2.68,44.81-10.98,62.58-27.14c3-2.73,5.86-5.6,9.67-9.26c0,11.07,0,21.08,0,31.06c24.27,0,47.85,0,71.79,0
		c0-1.78,0-3.25,0-4.72c0-68.52,0.04-137.05-0.06-205.57c-0.01-7.65-0.34-15.36-1.31-22.93c-4.58-35.81-22.71-61.94-55.99-76.88
		c-21.11-9.48-43.56-12.86-66.42-14.56c-42.53-3.15-82.96,3.87-120.48,24.7c-9.94,5.52-19.25,12.16-28.48,18.05
		c15.23,15.28,29.69,29.78,44.19,44.33c23.6-15.95,38.17-22.33,65.76-25.9c20.76-2.69,41.64-1.99,61.64,5.4
		c19.55,7.22,28.88,20.66,29.2,41.37C222.58,288.42,222.45,298.42,222.45,309.05z M-238.95,395.43
		c-15.61,15.28-31.31,30.64-47.1,46.11c1.38,1.32,2.54,2.52,3.79,3.61c62.71,54.74,134.74,69.25,213.86,46.96
		c45.12-12.71,73.2-42.38,78.11-91.06c3.69-36.56-11.83-65.59-44.76-81.74c-17.68-8.67-36.6-13.15-56.05-15.25
		c-21.52-2.32-43.14-3.66-64.63-6.23c-12.88-1.54-25.57-4.74-36.51-12.4c-15.07-10.55-15.75-28.46-0.82-39.24
		c6.73-4.86,14.68-8.73,22.65-11.06c31.3-9.15,62.41-6.01,92.77,4.38c13.11,4.49,25.48,11.16,38.84,17.13
		c13.43-13.87,27.59-28.5,41.96-43.34c-3.08-2.19-6.61-4.98-10.39-7.34c-51.07-31.87-106.56-42.24-165.64-32.59
		c-27.7,4.53-52.96,15.44-73.73,35.12c-31.13,29.48-35.25,78.9-9.12,111.13c13.89,17.13,32.88,26.13,53.42,32.31
		c26.34,7.92,53.63,9.61,80.81,12.24c13.55,1.31,27.21,2.86,40.4,6.07c24.66,5.99,25.91,34.66,10.52,46.94
		c-6.52,5.2-13.96,10.11-21.79,12.67c-42.46,13.91-82.78,7.66-120.6-15.33C-222.29,408.86-230.64,401.6-238.95,395.43z"/>
	<path class="st1" d="M326.04,577.91c15.95-15.97,31.83-31.88,47.77-47.86c7.66,4.18,15.22,9.07,23.36,12.64
		c33.77,14.81,65.87,11.53,95.65-10.38c14.68-10.79,22.33-25.79,23.28-43.96c0.45-8.61,0.08-17.26,0.08-26.47
		c-0.98,0.81-1.74,1.3-2.34,1.95c-37.91,40.9-102.38,49.84-153.35,21.13c-32.92-18.54-51.07-46.61-55.52-83.96
		c-4.3-36.07-3.19-72.23-2.21-108.39c0.43-15.81,1.07-31.66,6.13-46.89c14.1-42.44,44.15-66.16,87.46-73.64
		c25.51-4.41,50.77-3.14,75.13,6.76c16.03,6.51,29.48,16.68,41.3,29.15c0.9,0.95,1.72,1.96,3.51,4.01c0-12.46,0-23.62,0-35.06
		c24.57,0,48.48,0,72.65,0c0.1,0.78,0.3,1.57,0.3,2.35c-0.02,100.37,0.39,200.75-0.35,301.11c-0.26,34.75-11.21,66.74-35,92.86
		c-20.29,22.28-46.3,35.68-75.35,42.75c-56.86,13.84-106.88-1.29-151.75-37.06C326.42,578.65,326.21,578.16,326.04,577.91z
		 M515.37,336.5c0.23,0,0.45,0,0.68,0c0-10.66,0.34-21.34-0.1-31.99c-0.37-8.79-0.6-17.82-2.75-26.27
		c-4.73-18.56-16.85-31.67-34.21-39.25c-23.08-10.08-46.74-10.27-69.79-0.13c-22.07,9.7-36.46,25.85-37.96,51.18
		c-1.81,30.64-2.69,61.27,0.66,91.87c1.6,14.62,7.87,27.17,19.73,35.7c28.17,20.26,58.67,24.7,90.24,8.91
		c19.74-9.88,32.53-25.9,33.4-49.06C515.79,363.82,515.37,350.15,515.37,336.5z"/>
	<path class="st1" d="M895.66,365.5c-75.33,0-150.78,0-226.61,0c-0.43,10.79,1.95,20.55,6.63,29.68
		c10.82,21.08,28.92,33.05,51.36,37.7c41.23,8.54,79.06,1.02,111.74-26.92c0.63-0.54,1.29-1.04,1.52-1.22
		c14.02,14.05,27.96,28.04,42.19,42.3c-13.14,13.79-28.75,25.85-46.64,34.65c-52.64,25.88-106,27.77-159.23,2.37
		c-37.79-18.03-61.8-48.52-72.64-88.71c-12.96-48.04-11.72-95.84,8.19-141.89c20.26-46.86,57.01-73.4,107.08-81.38
		c27.97-4.46,55.84-2.83,83.2,4.67c48.45,13.27,77.81,45.36,90.5,93.31c8.01,30.26,8.01,60.98,3.97,91.81
		c-0.09,0.66-0.23,1.32-0.43,1.95C896.35,364.28,896.07,364.69,895.66,365.5z M668.95,309.06c57.45,0,114.44,0,171.4,0
		c1.2-19.67-6.87-41.72-20.18-55.58c-32.27-33.61-96.76-34.2-129.59-1.07C675.11,268.04,668.91,287.29,668.95,309.06z"/>
	<path class="st1" d="M222.45,309.05c0-10.64,0.13-20.64-0.03-30.63c-0.31-20.71-9.65-34.15-29.2-41.37
		c-20-7.39-40.87-8.09-61.64-5.4c-27.59,3.57-42.16,9.95-65.76,25.9c-14.5-14.54-28.95-29.04-44.19-44.33
		c9.23-5.89,18.54-12.53,28.48-18.05c37.52-20.83,77.94-27.86,120.48-24.7c22.87,1.7,45.31,5.08,66.42,14.56
		c33.28,14.94,51.41,41.07,55.99,76.88c0.97,7.58,1.3,15.29,1.31,22.93c0.1,68.52,0.06,137.04,0.06,205.57c0,1.47,0,2.94,0,4.72
		c-23.94,0-47.52,0-71.79,0c0-9.98,0-19.98,0-31.06c-3.81,3.66-6.68,6.53-9.67,9.26c-17.77,16.16-39.01,24.46-62.58,27.14
		c-26.48,3.01-52.6,1.52-77.68-8.3c-33.14-12.97-51.24-37.99-56.49-72.64c-2.69-17.79-2.47-35.62,3.19-52.92
		c8.7-26.6,28.03-42.11,53.86-50.5c14.69-4.77,29.88-6.84,45.25-6.95c32.66-0.22,65.33-0.09,98-0.1
		C218.26,309.05,220.07,309.05,222.45,309.05z M223.68,365.5c-1.82-0.27-2.3-0.4-2.78-0.4c-30.33,0.01-60.67-0.39-90.98,0.28
		c-11.02,0.25-22.31,1.93-32.9,4.98c-18.18,5.24-25.8,21.24-20.22,39.43c4.14,13.49,14.67,20.04,27.22,23.14
		c27.24,6.74,54.9,6.31,82.29,1.44c20.04-3.56,31.74-16.82,34.8-36.87C222.7,387.04,222.85,376.36,223.68,365.5z"/>
	<path class="st1" d="M-238.95,395.43c8.31,6.17,16.66,13.44,25.99,19.1c37.82,22.99,78.14,29.24,120.6,15.33
		c7.83-2.57,15.27-7.47,21.79-12.67c15.39-12.28,14.14-40.95-10.52-46.94c-13.18-3.2-26.85-4.75-40.4-6.07
		c-27.17-2.63-54.47-4.32-80.81-12.24c-20.54-6.18-39.54-15.18-53.42-32.31c-26.12-32.23-22-81.65,9.12-111.13
		c20.77-19.67,46.02-30.59,73.73-35.12c59.08-9.66,114.57,0.71,165.64,32.59c3.79,2.36,7.31,5.15,10.39,7.34
		c-14.37,14.84-28.53,29.47-41.96,43.34c-13.36-5.97-25.72-12.65-38.84-17.13c-30.36-10.39-61.47-13.53-92.77-4.38
		c-7.97,2.33-15.92,6.2-22.65,11.06c-14.93,10.78-14.25,28.69,0.82,39.24c10.93,7.65,23.62,10.86,36.51,12.4
		c21.48,2.57,43.11,3.91,64.63,6.23c19.45,2.1,38.37,6.58,56.05,15.25c32.93,16.15,48.44,45.17,44.76,81.74
		c-4.91,48.68-32.99,78.34-78.11,91.06c-79.11,22.29-151.15,7.78-213.86-46.96c-1.25-1.09-2.41-2.29-3.79-3.61
		C-270.26,426.07-254.56,410.71-238.95,395.43z"/>
	<path class="st0" d="M515.37,336.5c0,13.65,0.42,27.33-0.09,40.96c-0.88,23.16-13.66,39.19-33.4,49.06
		c-31.57,15.79-62.07,11.35-90.24-8.91c-11.86-8.53-18.13-21.08-19.73-35.7c-3.35-30.6-2.47-61.23-0.66-91.87
		c1.5-25.33,15.88-41.48,37.96-51.18c23.05-10.14,46.72-9.95,69.79,0.13c17.36,7.58,29.48,20.69,34.21,39.25
		c2.15,8.45,2.38,17.47,2.75,26.27c0.44,10.65,0.1,21.32,0.1,31.99C515.83,336.5,515.6,336.5,515.37,336.5z"/>
	<path class="st0" d="M668.95,309.06c-0.04-21.77,6.15-41.02,21.64-56.65c32.83-33.14,97.32-32.54,129.59,1.07
		c13.31,13.86,21.38,35.91,20.18,55.58C783.4,309.06,726.41,309.06,668.95,309.06z"/>
	<path class="st0" d="M223.68,365.5c-0.83,10.86-0.98,21.54-2.58,32c-3.06,20.05-14.76,33.31-34.8,36.87
		c-27.39,4.87-55.06,5.3-82.29-1.44c-12.54-3.1-23.08-9.65-27.22-23.14c-5.58-18.19,2.04-34.19,20.22-39.43
		c10.59-3.05,21.88-4.74,32.9-4.98c30.31-0.68,60.65-0.27,90.98-0.28C221.38,365.1,221.86,365.23,223.68,365.5z"/>
</g>
</svg>
